<svg width="1435" height="464" xmlns="http://www.w3.org/2000/svg" xmlns:xlink="http://www.w3.org/1999/xlink" xml:space="preserve" overflow="hidden"><g transform="translate(-784 -426)"><path d="M1073.5 575.5 2045.17 575.5" stroke="#156082" stroke-width="12.6042" stroke-miterlimit="8" fill="none" fill-rule="evenodd"/><path d="M1073.5 699.5 2045.17 699.5" stroke="#156082" stroke-width="12.6042" stroke-miterlimit="8" fill="none" fill-rule="evenodd"/><rect x="2044.5" y="504.5" width="171" height="271" stroke="#042433" stroke-width="6.875" stroke-miterlimit="8" fill="none"/><text font-family="Yu Gothic,Yu Gothic_MSFontService,sans-serif" font-weight="400" font-size="83" transform="matrix(1 0 0 1 2087.67 666)">Z</text><text font-family="Yu Gothic,Yu Gothic_MSFontService,sans-serif" font-weight="400" font-size="55" transform="matrix(1 0 0 1 2138.66 686)">L</text><path d="M967.5 617.75 1012 617.75 1012 595.5 1056.5 640 1012 684.5 1012 662.25 967.5 662.25Z" stroke="#042433" stroke-width="6.875" stroke-miterlimit="8" fill="#156082" fill-rule="evenodd"/><path d="M1096.42 788.063 2022.25 788.063 2022.25 794.938 1096.42 794.938ZM1101 805.25 1073.5 791.5 1101 777.75ZM2017.67 777.751 2045.17 791.501 2017.67 805.251Z" fill="#156082"/><rect x="1377" y="724" width="308" height="133" fill="#FFFFFF"/><text font-family="Yu Gothic,Yu Gothic_MSFontService,sans-serif" font-weight="400" font-size="83" transform="matrix(1 0 0 1 1410.29 817)">length</text><text font-family="Yu Gothic,Yu Gothic_MSFontService,sans-serif" font-weight="400" font-size="83" transform="matrix(1 0 0 1 834.289 668)">Z</text><text font-family="Yu Gothic,Yu Gothic_MSFontService,sans-serif" font-weight="400" font-size="55" transform="matrix(1 0 0 1 885.279 688)">in</text><text font-family="Yu Gothic,Yu Gothic_MSFontService,sans-serif" font-weight="400" font-size="83" transform="matrix(1 0 0 1 1469.59 528)">Z</text><text font-family="Yu Gothic,Yu Gothic_MSFontService,sans-serif" font-weight="400" font-size="55" transform="matrix(1 0 0 1 1520.58 548)">0</text></g></svg>